<mxfile host="app.diagrams.net" modified="2024-07-07T20:53:49.525Z" agent="Mozilla/5.0 (Windows NT 10.0; Win64; x64) AppleWebKit/537.36 (KHTML, like Gecko) Chrome/126.0.0.0 Safari/537.36 Edg/126.0.0.0" etag="3XZn06EzVrD0hsxrXiF7" version="24.6.4" type="device">
  <diagram name="Page-1" id="lVrUuA09V5TnWN3nw-BO">
    <mxGraphModel dx="1603" dy="875" grid="1" gridSize="10" guides="1" tooltips="1" connect="1" arrows="1" fold="1" page="1" pageScale="1" pageWidth="1200" pageHeight="600" math="0" shadow="0">
      <root>
        <mxCell id="0" />
        <mxCell id="1" parent="0" />
        <mxCell id="gdFsiFmkahnJ5q5iXYKo-1" value="Motor" style="swimlane;fontStyle=0;childLayout=stackLayout;horizontal=1;startSize=30;horizontalStack=0;resizeParent=1;resizeParentMax=0;resizeLast=0;collapsible=1;marginBottom=0;whiteSpace=wrap;html=1;" vertex="1" parent="1">
          <mxGeometry x="30" y="30" width="140" height="150" as="geometry" />
        </mxCell>
        <mxCell id="gdFsiFmkahnJ5q5iXYKo-2" value="Front Left (MF_L) = 0" style="text;strokeColor=none;fillColor=none;align=left;verticalAlign=middle;spacingLeft=4;spacingRight=4;overflow=hidden;points=[[0,0.5],[1,0.5]];portConstraint=eastwest;rotatable=0;whiteSpace=wrap;html=1;" vertex="1" parent="gdFsiFmkahnJ5q5iXYKo-1">
          <mxGeometry y="30" width="140" height="30" as="geometry" />
        </mxCell>
        <mxCell id="gdFsiFmkahnJ5q5iXYKo-5" value="Front Right (MF_R)" style="text;strokeColor=none;fillColor=none;align=left;verticalAlign=middle;spacingLeft=4;spacingRight=4;overflow=hidden;points=[[0,0.5],[1,0.5]];portConstraint=eastwest;rotatable=0;whiteSpace=wrap;html=1;" vertex="1" parent="gdFsiFmkahnJ5q5iXYKo-1">
          <mxGeometry y="60" width="140" height="30" as="geometry" />
        </mxCell>
        <mxCell id="gdFsiFmkahnJ5q5iXYKo-3" value="Rear Left (MR_L)" style="text;strokeColor=none;fillColor=none;align=left;verticalAlign=middle;spacingLeft=4;spacingRight=4;overflow=hidden;points=[[0,0.5],[1,0.5]];portConstraint=eastwest;rotatable=0;whiteSpace=wrap;html=1;" vertex="1" parent="gdFsiFmkahnJ5q5iXYKo-1">
          <mxGeometry y="90" width="140" height="30" as="geometry" />
        </mxCell>
        <mxCell id="gdFsiFmkahnJ5q5iXYKo-4" value="Rear RIght (MR_R)" style="text;strokeColor=none;fillColor=none;align=left;verticalAlign=middle;spacingLeft=4;spacingRight=4;overflow=hidden;points=[[0,0.5],[1,0.5]];portConstraint=eastwest;rotatable=0;whiteSpace=wrap;html=1;" vertex="1" parent="gdFsiFmkahnJ5q5iXYKo-1">
          <mxGeometry y="120" width="140" height="30" as="geometry" />
        </mxCell>
        <mxCell id="gdFsiFmkahnJ5q5iXYKo-6" value="struct Motor" style="swimlane;fontStyle=0;childLayout=stackLayout;horizontal=1;startSize=30;horizontalStack=0;resizeParent=1;resizeParentMax=0;resizeLast=0;collapsible=1;marginBottom=0;whiteSpace=wrap;html=1;" vertex="1" parent="1">
          <mxGeometry x="260" y="60" width="150" height="90" as="geometry" />
        </mxCell>
        <mxCell id="gdFsiFmkahnJ5q5iXYKo-7" value="PWM (Max 0, min 100)" style="text;strokeColor=none;fillColor=none;align=left;verticalAlign=middle;spacingLeft=4;spacingRight=4;overflow=hidden;points=[[0,0.5],[1,0.5]];portConstraint=eastwest;rotatable=0;whiteSpace=wrap;html=1;" vertex="1" parent="gdFsiFmkahnJ5q5iXYKo-6">
          <mxGeometry y="30" width="150" height="30" as="geometry" />
        </mxCell>
        <mxCell id="gdFsiFmkahnJ5q5iXYKo-8" value="Direction" style="text;strokeColor=none;fillColor=none;align=left;verticalAlign=middle;spacingLeft=4;spacingRight=4;overflow=hidden;points=[[0,0.5],[1,0.5]];portConstraint=eastwest;rotatable=0;whiteSpace=wrap;html=1;" vertex="1" parent="gdFsiFmkahnJ5q5iXYKo-6">
          <mxGeometry y="60" width="150" height="30" as="geometry" />
        </mxCell>
        <mxCell id="gdFsiFmkahnJ5q5iXYKo-13" style="edgeStyle=orthogonalEdgeStyle;rounded=0;orthogonalLoop=1;jettySize=auto;html=1;exitX=1;exitY=0.5;exitDx=0;exitDy=0;entryX=1;entryY=0.5;entryDx=0;entryDy=0;" edge="1" parent="gdFsiFmkahnJ5q5iXYKo-6" source="gdFsiFmkahnJ5q5iXYKo-6" target="gdFsiFmkahnJ5q5iXYKo-7">
          <mxGeometry relative="1" as="geometry" />
        </mxCell>
        <mxCell id="gdFsiFmkahnJ5q5iXYKo-10" style="edgeStyle=orthogonalEdgeStyle;rounded=0;orthogonalLoop=1;jettySize=auto;html=1;exitX=1;exitY=0.5;exitDx=0;exitDy=0;entryX=0;entryY=0.5;entryDx=0;entryDy=0;" edge="1" parent="1" source="gdFsiFmkahnJ5q5iXYKo-5" target="gdFsiFmkahnJ5q5iXYKo-6">
          <mxGeometry relative="1" as="geometry" />
        </mxCell>
        <mxCell id="gdFsiFmkahnJ5q5iXYKo-12" value="Initial" style="edgeLabel;html=1;align=center;verticalAlign=middle;resizable=0;points=[];" vertex="1" connectable="0" parent="gdFsiFmkahnJ5q5iXYKo-10">
          <mxGeometry x="-0.275" y="5" relative="1" as="geometry">
            <mxPoint x="11" y="5" as="offset" />
          </mxGeometry>
        </mxCell>
        <mxCell id="gdFsiFmkahnJ5q5iXYKo-20" style="edgeStyle=orthogonalEdgeStyle;rounded=0;orthogonalLoop=1;jettySize=auto;html=1;exitX=0;exitY=0.5;exitDx=0;exitDy=0;entryX=0.5;entryY=0;entryDx=0;entryDy=0;" edge="1" parent="1" source="gdFsiFmkahnJ5q5iXYKo-16" target="gdFsiFmkahnJ5q5iXYKo-19">
          <mxGeometry relative="1" as="geometry" />
        </mxCell>
        <mxCell id="gdFsiFmkahnJ5q5iXYKo-29" value="M" style="edgeLabel;html=1;align=center;verticalAlign=middle;resizable=0;points=[];" vertex="1" connectable="0" parent="gdFsiFmkahnJ5q5iXYKo-20">
          <mxGeometry x="0.7175" y="1" relative="1" as="geometry">
            <mxPoint as="offset" />
          </mxGeometry>
        </mxCell>
        <mxCell id="gdFsiFmkahnJ5q5iXYKo-23" style="edgeStyle=orthogonalEdgeStyle;rounded=0;orthogonalLoop=1;jettySize=auto;html=1;exitX=0.5;exitY=1;exitDx=0;exitDy=0;entryX=0.5;entryY=0;entryDx=0;entryDy=0;" edge="1" parent="1" source="gdFsiFmkahnJ5q5iXYKo-16" target="gdFsiFmkahnJ5q5iXYKo-21">
          <mxGeometry relative="1" as="geometry" />
        </mxCell>
        <mxCell id="gdFsiFmkahnJ5q5iXYKo-26" value="S" style="edgeLabel;html=1;align=center;verticalAlign=middle;resizable=0;points=[];" vertex="1" connectable="0" parent="gdFsiFmkahnJ5q5iXYKo-23">
          <mxGeometry x="-0.3333" relative="1" as="geometry">
            <mxPoint as="offset" />
          </mxGeometry>
        </mxCell>
        <mxCell id="gdFsiFmkahnJ5q5iXYKo-24" style="edgeStyle=orthogonalEdgeStyle;rounded=0;orthogonalLoop=1;jettySize=auto;html=1;exitX=1;exitY=0.5;exitDx=0;exitDy=0;entryX=0.5;entryY=0;entryDx=0;entryDy=0;" edge="1" parent="1" source="gdFsiFmkahnJ5q5iXYKo-16" target="gdFsiFmkahnJ5q5iXYKo-22">
          <mxGeometry relative="1" as="geometry">
            <Array as="points">
              <mxPoint x="980" y="140" />
            </Array>
          </mxGeometry>
        </mxCell>
        <mxCell id="gdFsiFmkahnJ5q5iXYKo-28" value="R" style="edgeLabel;html=1;align=center;verticalAlign=middle;resizable=0;points=[];" vertex="1" connectable="0" parent="gdFsiFmkahnJ5q5iXYKo-24">
          <mxGeometry x="0.7255" y="2" relative="1" as="geometry">
            <mxPoint as="offset" />
          </mxGeometry>
        </mxCell>
        <mxCell id="gdFsiFmkahnJ5q5iXYKo-16" value="check dataBuffer[0]" style="rhombus;whiteSpace=wrap;html=1;" vertex="1" parent="1">
          <mxGeometry x="707.5" y="100" width="192.5" height="80" as="geometry" />
        </mxCell>
        <mxCell id="gdFsiFmkahnJ5q5iXYKo-18" style="edgeStyle=orthogonalEdgeStyle;rounded=0;orthogonalLoop=1;jettySize=auto;html=1;exitX=0.5;exitY=1;exitDx=0;exitDy=0;entryX=0.5;entryY=0;entryDx=0;entryDy=0;" edge="1" parent="1" source="gdFsiFmkahnJ5q5iXYKo-17" target="gdFsiFmkahnJ5q5iXYKo-16">
          <mxGeometry relative="1" as="geometry" />
        </mxCell>
        <mxCell id="gdFsiFmkahnJ5q5iXYKo-17" value="dataBuffer" style="rounded=1;whiteSpace=wrap;html=1;" vertex="1" parent="1">
          <mxGeometry x="745" y="20" width="120" height="60" as="geometry" />
        </mxCell>
        <mxCell id="gdFsiFmkahnJ5q5iXYKo-19" value="moveControl()" style="rounded=0;whiteSpace=wrap;html=1;" vertex="1" parent="1">
          <mxGeometry x="570" y="210" width="120" height="60" as="geometry" />
        </mxCell>
        <mxCell id="gdFsiFmkahnJ5q5iXYKo-21" value="setSpeed()" style="rounded=0;whiteSpace=wrap;html=1;" vertex="1" parent="1">
          <mxGeometry x="743.75" y="210" width="120" height="60" as="geometry" />
        </mxCell>
        <mxCell id="gdFsiFmkahnJ5q5iXYKo-22" value="rotateControl()" style="rounded=0;whiteSpace=wrap;html=1;" vertex="1" parent="1">
          <mxGeometry x="920" y="210" width="120" height="60" as="geometry" />
        </mxCell>
        <mxCell id="gdFsiFmkahnJ5q5iXYKo-30" value="moveControl()" style="swimlane;whiteSpace=wrap;html=1;" vertex="1" parent="1">
          <mxGeometry x="50" y="200" width="440" height="360" as="geometry" />
        </mxCell>
      </root>
    </mxGraphModel>
  </diagram>
</mxfile>
